<svg width="15" height="14" viewBox="0 0 15 14" fill="none" xmlns="http://www.w3.org/2000/svg">
<g clip-path="url(#clip0_32_205)">
<path d="M3.37287 1.12602C5.02542 2.40283 6.80292 4.99166 7.45553 6.38097C8.10819 4.99176 9.8856 2.4028 11.5382 1.12602C12.7306 0.204729 14.6626 -0.508114 14.6626 1.76019C14.6626 2.2132 14.4102 5.56572 14.2622 6.10999C13.7477 8.00224 11.8728 8.48487 10.2051 8.19276C13.1202 8.70337 13.8618 10.3947 12.2603 12.086C9.21867 15.2982 7.8886 11.2801 7.54763 10.2505C7.48516 10.0617 7.45592 9.97345 7.45549 10.0485C7.45506 9.97345 7.42583 10.0617 7.36335 10.2505C7.02253 11.2801 5.69248 15.2983 2.65069 12.086C1.04914 10.3947 1.79069 8.70327 4.70587 8.19276C3.03811 8.48487 1.16323 8.00224 0.648801 6.10999C0.500779 5.56567 0.248413 2.21315 0.248413 1.76019C0.248413 -0.508114 2.18045 0.204729 3.37279 1.12602H3.37287Z" fill="black"/>
</g>
<defs>
<clipPath id="clip0_32_205">
<rect width="14.9111" height="13.5556" fill="white"/>
</clipPath>
</defs>
</svg>
