<svg width="13" height="14" viewBox="0 0 13 14" fill="none" xmlns="http://www.w3.org/2000/svg">
<g clip-path="url(#clip0_32_202)">
<path d="M11.9403 8.12642C11.7609 9.08264 10.3341 10.1291 8.6953 10.332C7.84075 10.4376 6.99937 10.5348 6.10219 10.4921C4.63494 10.4224 3.47717 10.1291 3.47717 10.1291C3.47717 10.2772 3.48598 10.4181 3.50359 10.55C3.69435 12.0507 4.93942 12.1406 6.11882 12.1825C7.30922 12.2248 8.36917 11.8784 8.36917 11.8784L8.41808 12.9937C8.41808 12.9937 7.58545 13.4571 6.10219 13.5424C5.28429 13.5889 4.26872 13.521 3.08587 13.1965C0.520458 12.4928 0.0792663 9.65858 0.0117592 6.78282C-0.00881707 5.92899 0.00386693 5.12387 0.00386693 4.45051C0.00386693 1.50989 1.86285 0.647952 1.86285 0.647952C2.8002 0.201791 4.4086 0.0141685 6.0807 0H6.12178C7.79389 0.0141685 9.40334 0.201791 10.3406 0.647952C10.3406 0.647952 12.1995 1.50989 12.1995 4.45051C12.1995 4.45051 12.2229 6.62011 11.9403 8.12642Z" fill="black"/>
<path d="M10.0069 4.67857V8.23916H8.6458V4.78322C8.6458 4.05472 8.35005 3.68495 7.75848 3.68495C7.10441 3.68495 6.7766 4.12359 6.7766 4.99093V6.88257H5.42357V4.99093C5.42357 4.12359 5.09569 3.68495 4.44162 3.68495C3.85005 3.68495 3.5543 4.05472 3.5543 4.78322V8.23916H2.19324V4.67857C2.19324 3.95086 2.37201 3.37258 2.73111 2.94476C3.10141 2.51693 3.58636 2.29761 4.18836 2.29761C4.88485 2.29761 5.4123 2.57506 5.76103 3.13004L6.10005 3.71905L6.43914 3.13004C6.78781 2.57506 7.31525 2.29761 8.01181 2.29761C8.61374 2.29761 9.09869 2.51693 9.46906 2.94476C9.82809 3.37258 10.0069 3.95086 10.0069 4.67857Z" fill="white"/>
</g>
<defs>
<clipPath id="clip0_32_202">
<rect width="12.2" height="13.5556" fill="white"/>
</clipPath>
</defs>
</svg>
